<mxfile host="app.diagrams.net" modified="2022-03-30T02:00:48.490Z" agent="5.0 (X11; Linux x86_64) AppleWebKit/537.36 (KHTML, like Gecko) Chrome/99.0.4844.84 Safari/537.36" etag="2NmOjuU8WU5B_-DnmNgM" version="16.5.6" type="github">
  <diagram id="9mxP3SmCowv0ukDHlzs3" name="第 1 页">
    <mxGraphModel dx="2171" dy="1213" grid="1" gridSize="10" guides="1" tooltips="1" connect="1" arrows="1" fold="1" page="1" pageScale="1" pageWidth="1169" pageHeight="827" math="0" shadow="0">
      <root>
        <mxCell id="0" />
        <mxCell id="1" parent="0" />
        <mxCell id="V-_y05ZtOnqCJKIF91Li-1" value="" style="rounded=0;whiteSpace=wrap;html=1;labelBackgroundColor=none;" parent="1" vertex="1">
          <mxGeometry x="70" y="74" width="280" height="540" as="geometry" />
        </mxCell>
        <mxCell id="V-_y05ZtOnqCJKIF91Li-2" value="" style="rounded=0;whiteSpace=wrap;html=1;labelBackgroundColor=none;" parent="1" vertex="1">
          <mxGeometry x="440" y="74" width="280" height="540" as="geometry" />
        </mxCell>
        <mxCell id="V-_y05ZtOnqCJKIF91Li-3" value="" style="rounded=0;whiteSpace=wrap;html=1;labelBackgroundColor=none;" parent="1" vertex="1">
          <mxGeometry x="810" y="74" width="280" height="540" as="geometry" />
        </mxCell>
        <mxCell id="V-_y05ZtOnqCJKIF91Li-4" value="YROS Homescreen" style="text;html=1;align=center;verticalAlign=middle;resizable=0;points=[];autosize=1;strokeColor=none;fillColor=none;labelBackgroundColor=none;" parent="1" vertex="1">
          <mxGeometry x="150" y="30" width="120" height="20" as="geometry" />
        </mxCell>
        <mxCell id="V-_y05ZtOnqCJKIF91Li-5" value="Android Weixin" style="text;html=1;align=center;verticalAlign=middle;resizable=0;points=[];autosize=1;strokeColor=none;fillColor=none;labelBackgroundColor=none;" parent="1" vertex="1">
          <mxGeometry x="900" y="30" width="100" height="20" as="geometry" />
        </mxCell>
        <mxCell id="V-_y05ZtOnqCJKIF91Li-6" value="Android WPS" style="text;html=1;align=center;verticalAlign=middle;resizable=0;points=[];autosize=1;strokeColor=none;fillColor=none;labelBackgroundColor=none;" parent="1" vertex="1">
          <mxGeometry x="535" y="30" width="90" height="20" as="geometry" />
        </mxCell>
        <mxCell id="V-_y05ZtOnqCJKIF91Li-8" value="&amp;lt;a href=&quot;http://cnwpsmoffice.localhost/index.html&amp;gt;&lt;br&gt;&amp;nbsp; &amp;nbsp;&amp;lt;img src=&quot;http://cnwpsmoffice.localhost/icon.png&amp;gt;&lt;br&gt;&amp;nbsp; &amp;nbsp;WPS&lt;br&gt;&amp;lt;/a&amp;gt;" style="text;html=1;align=left;verticalAlign=middle;resizable=0;points=[];autosize=1;strokeColor=none;fillColor=none;labelBackgroundColor=none;" parent="1" vertex="1">
          <mxGeometry x="70" y="340" width="290" height="60" as="geometry" />
        </mxCell>
        <mxCell id="1giEV83V6FUCRHBAdTvc-1" value="YROS 状态栏" style="rounded=0;whiteSpace=wrap;html=1;labelBackgroundColor=none;" parent="1" vertex="1">
          <mxGeometry x="70" y="70" width="280" height="20" as="geometry" />
        </mxCell>
        <mxCell id="1giEV83V6FUCRHBAdTvc-2" value="YROS Home Button" style="rounded=0;whiteSpace=wrap;html=1;align=left;labelBackgroundColor=none;" parent="1" vertex="1">
          <mxGeometry x="70" y="594" width="280" height="20" as="geometry" />
        </mxCell>
        <mxCell id="1giEV83V6FUCRHBAdTvc-4" value="弹出式通知 of 微信：&lt;br&gt;Who：blah blah blah" style="rounded=0;whiteSpace=wrap;html=1;labelBackgroundColor=none;" parent="1" vertex="1">
          <mxGeometry x="440" y="74" width="280" height="56" as="geometry" />
        </mxCell>
        <mxCell id="1giEV83V6FUCRHBAdTvc-5" value="某个sdcard上的文件" style="rounded=0;whiteSpace=wrap;html=1;align=left;labelBackgroundColor=none;" parent="1" vertex="1">
          <mxGeometry x="500" y="210" width="190" height="40" as="geometry" />
        </mxCell>
        <mxCell id="1giEV83V6FUCRHBAdTvc-6" value="某个sdcard上的文件" style="rounded=0;whiteSpace=wrap;html=1;align=left;labelBackgroundColor=none;" parent="1" vertex="1">
          <mxGeometry x="500" y="260" width="190" height="40" as="geometry" />
        </mxCell>
        <mxCell id="1giEV83V6FUCRHBAdTvc-7" value="某个sdcard上的文件" style="rounded=0;whiteSpace=wrap;html=1;align=left;labelBackgroundColor=none;" parent="1" vertex="1">
          <mxGeometry x="500" y="310" width="190" height="40" as="geometry" />
        </mxCell>
        <mxCell id="1giEV83V6FUCRHBAdTvc-8" value="某个sdcard上的文件" style="rounded=0;whiteSpace=wrap;html=1;align=left;labelBackgroundColor=none;" parent="1" vertex="1">
          <mxGeometry x="500" y="360" width="190" height="40" as="geometry" />
        </mxCell>
        <mxCell id="1giEV83V6FUCRHBAdTvc-9" value="" style="ellipse;whiteSpace=wrap;html=1;aspect=fixed;labelBackgroundColor=none;" parent="1" vertex="1">
          <mxGeometry x="460" y="215" width="30" height="30" as="geometry" />
        </mxCell>
        <mxCell id="1giEV83V6FUCRHBAdTvc-10" value="" style="ellipse;whiteSpace=wrap;html=1;aspect=fixed;labelBackgroundColor=none;" parent="1" vertex="1">
          <mxGeometry x="460" y="265" width="30" height="30" as="geometry" />
        </mxCell>
        <mxCell id="1giEV83V6FUCRHBAdTvc-11" value="" style="ellipse;whiteSpace=wrap;html=1;aspect=fixed;labelBackgroundColor=none;" parent="1" vertex="1">
          <mxGeometry x="460" y="315" width="30" height="30" as="geometry" />
        </mxCell>
        <mxCell id="1giEV83V6FUCRHBAdTvc-12" value="" style="ellipse;whiteSpace=wrap;html=1;aspect=fixed;labelBackgroundColor=none;" parent="1" vertex="1">
          <mxGeometry x="460" y="365" width="30" height="30" as="geometry" />
        </mxCell>
        <mxCell id="1giEV83V6FUCRHBAdTvc-13" value=".........." style="text;html=1;align=center;verticalAlign=middle;resizable=0;points=[];autosize=1;strokeColor=none;fillColor=none;labelBackgroundColor=none;" parent="1" vertex="1">
          <mxGeometry x="555" y="420" width="50" height="20" as="geometry" />
        </mxCell>
        <mxCell id="1giEV83V6FUCRHBAdTvc-14" value="Android Back Button" style="rounded=0;whiteSpace=wrap;html=1;align=left;labelBackgroundColor=none;" parent="1" vertex="1">
          <mxGeometry x="440" y="594" width="280" height="20" as="geometry" />
        </mxCell>
        <mxCell id="1giEV83V6FUCRHBAdTvc-15" value="" style="ellipse;whiteSpace=wrap;html=1;aspect=fixed;labelBackgroundColor=none;" parent="1" vertex="1">
          <mxGeometry x="202" y="596" width="16" height="16" as="geometry" />
        </mxCell>
        <mxCell id="1giEV83V6FUCRHBAdTvc-16" value="" style="triangle;whiteSpace=wrap;html=1;rotation=-180;labelBackgroundColor=none;" parent="1" vertex="1">
          <mxGeometry x="577" y="598" width="15" height="12" as="geometry" />
        </mxCell>
        <mxCell id="1giEV83V6FUCRHBAdTvc-20" value="分享到&lt;br&gt;微信" style="rounded=0;whiteSpace=wrap;html=1;labelBackgroundColor=none;" parent="1" vertex="1">
          <mxGeometry x="630" y="215" width="50" height="30" as="geometry" />
        </mxCell>
        <mxCell id="1giEV83V6FUCRHBAdTvc-21" value="分享到&lt;br&gt;微信" style="rounded=0;whiteSpace=wrap;html=1;labelBackgroundColor=none;" parent="1" vertex="1">
          <mxGeometry x="630" y="265" width="50" height="30" as="geometry" />
        </mxCell>
        <mxCell id="1giEV83V6FUCRHBAdTvc-22" value="分享到&lt;br&gt;微信" style="rounded=0;whiteSpace=wrap;html=1;labelBackgroundColor=none;" parent="1" vertex="1">
          <mxGeometry x="630" y="313.5" width="50" height="30" as="geometry" />
        </mxCell>
        <mxCell id="1giEV83V6FUCRHBAdTvc-23" value="分享到&lt;br&gt;微信" style="rounded=0;whiteSpace=wrap;html=1;labelBackgroundColor=none;" parent="1" vertex="1">
          <mxGeometry x="630" y="365" width="50" height="30" as="geometry" />
        </mxCell>
        <mxCell id="1giEV83V6FUCRHBAdTvc-25" value="Android Back Button" style="rounded=0;whiteSpace=wrap;html=1;align=right;labelBackgroundColor=none;" parent="1" vertex="1">
          <mxGeometry x="810" y="594" width="280" height="20" as="geometry" />
        </mxCell>
        <mxCell id="1giEV83V6FUCRHBAdTvc-26" value="" style="triangle;whiteSpace=wrap;html=1;rotation=-180;labelBackgroundColor=none;" parent="1" vertex="1">
          <mxGeometry x="947" y="598" width="15" height="12" as="geometry" />
        </mxCell>
        <mxCell id="1giEV83V6FUCRHBAdTvc-27" value="&amp;lt;a href=&quot;http://comtencentmm.localhost/index.html&amp;gt;&lt;br&gt;&amp;nbsp; &amp;nbsp;&amp;lt;img src=&quot;http://comtencentmm.localhost/icon.png&amp;gt;&lt;br&gt;&amp;nbsp; &amp;nbsp;微信&lt;br&gt;&amp;lt;/a&amp;gt;" style="text;html=1;align=left;verticalAlign=middle;resizable=0;points=[];autosize=1;strokeColor=none;fillColor=none;labelBackgroundColor=none;" parent="1" vertex="1">
          <mxGeometry x="70" y="415" width="300" height="60" as="geometry" />
        </mxCell>
        <mxCell id="1giEV83V6FUCRHBAdTvc-29" value="" style="curved=1;endArrow=classic;html=1;rounded=0;entryX=0;entryY=0.25;entryDx=0;entryDy=0;labelBackgroundColor=none;" parent="1" source="V-_y05ZtOnqCJKIF91Li-8" target="1giEV83V6FUCRHBAdTvc-36" edge="1">
          <mxGeometry width="50" height="50" relative="1" as="geometry">
            <mxPoint x="390" y="90" as="sourcePoint" />
            <mxPoint x="440" y="40" as="targetPoint" />
            <Array as="points">
              <mxPoint x="450" y="130" />
              <mxPoint x="710" y="110" />
            </Array>
          </mxGeometry>
        </mxCell>
        <mxCell id="1giEV83V6FUCRHBAdTvc-48" value="1" style="edgeLabel;html=1;align=center;verticalAlign=middle;resizable=0;points=[];labelBackgroundColor=none;" parent="1giEV83V6FUCRHBAdTvc-29" vertex="1" connectable="0">
          <mxGeometry x="-0.4223" y="-18" relative="1" as="geometry">
            <mxPoint as="offset" />
          </mxGeometry>
        </mxCell>
        <mxCell id="1giEV83V6FUCRHBAdTvc-57" value="x" style="edgeLabel;html=1;align=center;verticalAlign=middle;resizable=0;points=[];labelBackgroundColor=none;" parent="1giEV83V6FUCRHBAdTvc-29" vertex="1" connectable="0">
          <mxGeometry x="-0.9536" y="2" relative="1" as="geometry">
            <mxPoint as="offset" />
          </mxGeometry>
        </mxCell>
        <mxCell id="1giEV83V6FUCRHBAdTvc-58" value="x" style="edgeLabel;html=1;align=center;verticalAlign=middle;resizable=0;points=[];labelBackgroundColor=none;" parent="1giEV83V6FUCRHBAdTvc-29" vertex="1" connectable="0">
          <mxGeometry x="0.2708" y="-1" relative="1" as="geometry">
            <mxPoint as="offset" />
          </mxGeometry>
        </mxCell>
        <mxCell id="1giEV83V6FUCRHBAdTvc-59" value="x" style="edgeLabel;html=1;align=center;verticalAlign=middle;resizable=0;points=[];labelBackgroundColor=none;" parent="1giEV83V6FUCRHBAdTvc-29" vertex="1" connectable="0">
          <mxGeometry x="0.9508" y="-2" relative="1" as="geometry">
            <mxPoint as="offset" />
          </mxGeometry>
        </mxCell>
        <mxCell id="1giEV83V6FUCRHBAdTvc-30" value="" style="curved=1;endArrow=classic;html=1;rounded=0;entryX=0;entryY=0.25;entryDx=0;entryDy=0;labelBackgroundColor=none;" parent="1" source="V-_y05ZtOnqCJKIF91Li-8" target="1giEV83V6FUCRHBAdTvc-38" edge="1">
          <mxGeometry width="50" height="50" relative="1" as="geometry">
            <mxPoint x="460" y="770" as="sourcePoint" />
            <mxPoint x="510" y="720" as="targetPoint" />
            <Array as="points">
              <mxPoint x="560" y="210" />
              <mxPoint x="740" y="240" />
            </Array>
          </mxGeometry>
        </mxCell>
        <mxCell id="1giEV83V6FUCRHBAdTvc-49" value="2" style="edgeLabel;html=1;align=center;verticalAlign=middle;resizable=0;points=[];labelBackgroundColor=none;" parent="1giEV83V6FUCRHBAdTvc-30" vertex="1" connectable="0">
          <mxGeometry x="-0.5763" y="-8" relative="1" as="geometry">
            <mxPoint as="offset" />
          </mxGeometry>
        </mxCell>
        <mxCell id="1giEV83V6FUCRHBAdTvc-60" value="x" style="edgeLabel;html=1;align=center;verticalAlign=middle;resizable=0;points=[];labelBackgroundColor=none;" parent="1giEV83V6FUCRHBAdTvc-30" vertex="1" connectable="0">
          <mxGeometry x="-0.9561" y="-4" relative="1" as="geometry">
            <mxPoint as="offset" />
          </mxGeometry>
        </mxCell>
        <mxCell id="1giEV83V6FUCRHBAdTvc-61" value="x" style="edgeLabel;html=1;align=center;verticalAlign=middle;resizable=0;points=[];labelBackgroundColor=none;" parent="1giEV83V6FUCRHBAdTvc-30" vertex="1" connectable="0">
          <mxGeometry x="0.36" y="-3" relative="1" as="geometry">
            <mxPoint as="offset" />
          </mxGeometry>
        </mxCell>
        <mxCell id="1giEV83V6FUCRHBAdTvc-62" value="x" style="edgeLabel;html=1;align=center;verticalAlign=middle;resizable=0;points=[];labelBackgroundColor=none;" parent="1giEV83V6FUCRHBAdTvc-30" vertex="1" connectable="0">
          <mxGeometry x="0.9364" relative="1" as="geometry">
            <mxPoint as="offset" />
          </mxGeometry>
        </mxCell>
        <mxCell id="1giEV83V6FUCRHBAdTvc-33" value="" style="curved=1;endArrow=classic;html=1;rounded=0;exitX=0.5;exitY=0;exitDx=0;exitDy=0;labelBackgroundColor=none;" parent="1" source="1giEV83V6FUCRHBAdTvc-26" target="V-_y05ZtOnqCJKIF91Li-1" edge="1">
          <mxGeometry width="50" height="50" relative="1" as="geometry">
            <mxPoint x="950" y="614" as="sourcePoint" />
            <mxPoint x="1000" y="680" as="targetPoint" />
            <Array as="points">
              <mxPoint x="630" y="614" />
              <mxPoint x="420" y="570" />
            </Array>
          </mxGeometry>
        </mxCell>
        <mxCell id="1giEV83V6FUCRHBAdTvc-50" value="3" style="edgeLabel;html=1;align=center;verticalAlign=middle;resizable=0;points=[];labelBackgroundColor=none;" parent="1giEV83V6FUCRHBAdTvc-33" vertex="1" connectable="0">
          <mxGeometry x="0.7864" y="-9" relative="1" as="geometry">
            <mxPoint x="-1" as="offset" />
          </mxGeometry>
        </mxCell>
        <mxCell id="1giEV83V6FUCRHBAdTvc-63" value="x" style="edgeLabel;html=1;align=center;verticalAlign=middle;resizable=0;points=[];labelBackgroundColor=none;" parent="1giEV83V6FUCRHBAdTvc-33" vertex="1" connectable="0">
          <mxGeometry x="-0.9519" y="-2" relative="1" as="geometry">
            <mxPoint as="offset" />
          </mxGeometry>
        </mxCell>
        <mxCell id="1giEV83V6FUCRHBAdTvc-64" value="x" style="edgeLabel;html=1;align=center;verticalAlign=middle;resizable=0;points=[];labelBackgroundColor=none;" parent="1giEV83V6FUCRHBAdTvc-33" vertex="1" connectable="0">
          <mxGeometry x="0.0829" y="-7" relative="1" as="geometry">
            <mxPoint as="offset" />
          </mxGeometry>
        </mxCell>
        <mxCell id="1giEV83V6FUCRHBAdTvc-65" value="x" style="edgeLabel;html=1;align=center;verticalAlign=middle;resizable=0;points=[];labelBackgroundColor=none;" parent="1giEV83V6FUCRHBAdTvc-33" vertex="1" connectable="0">
          <mxGeometry x="0.9464" relative="1" as="geometry">
            <mxPoint as="offset" />
          </mxGeometry>
        </mxCell>
        <mxCell id="1giEV83V6FUCRHBAdTvc-36" value="Message" style="rounded=0;whiteSpace=wrap;html=1;verticalAlign=top;labelBackgroundColor=none;" parent="1" vertex="1">
          <mxGeometry x="842" y="104" width="228" height="165" as="geometry" />
        </mxCell>
        <mxCell id="1giEV83V6FUCRHBAdTvc-37" value="Who:&lt;br&gt;&lt;div&gt;&lt;span&gt;Blah blah blah&lt;/span&gt;&lt;/div&gt;" style="rounded=0;whiteSpace=wrap;html=1;align=left;labelBackgroundColor=none;" parent="1" vertex="1">
          <mxGeometry x="857.5" y="139" width="120" height="60" as="geometry" />
        </mxCell>
        <mxCell id="1giEV83V6FUCRHBAdTvc-38" value="Send File to:&lt;br&gt;" style="rounded=0;whiteSpace=wrap;html=1;verticalAlign=top;labelBackgroundColor=none;" parent="1" vertex="1">
          <mxGeometry x="842" y="292" width="228" height="165" as="geometry" />
        </mxCell>
        <mxCell id="1giEV83V6FUCRHBAdTvc-39" value="Alice" style="rounded=0;whiteSpace=wrap;html=1;labelBackgroundColor=none;" parent="1" vertex="1">
          <mxGeometry x="890" y="326" width="150" height="30" as="geometry" />
        </mxCell>
        <mxCell id="1giEV83V6FUCRHBAdTvc-40" value="Bob" style="rounded=0;whiteSpace=wrap;html=1;labelBackgroundColor=none;" parent="1" vertex="1">
          <mxGeometry x="890" y="372" width="150" height="30" as="geometry" />
        </mxCell>
        <mxCell id="1giEV83V6FUCRHBAdTvc-41" value="Who" style="rounded=0;whiteSpace=wrap;html=1;labelBackgroundColor=none;" parent="1" vertex="1">
          <mxGeometry x="890" y="417" width="150" height="30" as="geometry" />
        </mxCell>
        <mxCell id="1giEV83V6FUCRHBAdTvc-42" value="" style="ellipse;whiteSpace=wrap;html=1;aspect=fixed;labelBackgroundColor=none;" parent="1" vertex="1">
          <mxGeometry x="857.5" y="331" width="20" height="20" as="geometry" />
        </mxCell>
        <mxCell id="1giEV83V6FUCRHBAdTvc-43" value="" style="ellipse;whiteSpace=wrap;html=1;aspect=fixed;labelBackgroundColor=none;" parent="1" vertex="1">
          <mxGeometry x="857.5" y="377" width="20" height="20" as="geometry" />
        </mxCell>
        <mxCell id="1giEV83V6FUCRHBAdTvc-44" value="" style="ellipse;whiteSpace=wrap;html=1;aspect=fixed;labelBackgroundColor=none;" parent="1" vertex="1">
          <mxGeometry x="857.5" y="422" width="20" height="20" as="geometry" />
        </mxCell>
        <mxCell id="1giEV83V6FUCRHBAdTvc-47" value="" style="curved=1;endArrow=classic;html=1;rounded=0;labelBackgroundColor=none;exitX=0.79;exitY=1.025;exitDx=0;exitDy=0;exitPerimeter=0;" parent="1" source="1giEV83V6FUCRHBAdTvc-27" target="V-_y05ZtOnqCJKIF91Li-3" edge="1">
          <mxGeometry width="50" height="50" relative="1" as="geometry">
            <mxPoint x="590" y="720" as="sourcePoint" />
            <mxPoint x="860" y="660" as="targetPoint" />
            <Array as="points">
              <mxPoint x="420" y="660" />
              <mxPoint x="740" y="660" />
            </Array>
          </mxGeometry>
        </mxCell>
        <mxCell id="1giEV83V6FUCRHBAdTvc-66" value="x" style="edgeLabel;html=1;align=center;verticalAlign=middle;resizable=0;points=[];labelBackgroundColor=none;" parent="1giEV83V6FUCRHBAdTvc-47" vertex="1" connectable="0">
          <mxGeometry x="-0.9512" y="-1" relative="1" as="geometry">
            <mxPoint as="offset" />
          </mxGeometry>
        </mxCell>
        <mxCell id="1giEV83V6FUCRHBAdTvc-67" value="x" style="edgeLabel;html=1;align=center;verticalAlign=middle;resizable=0;points=[];labelBackgroundColor=none;" parent="1giEV83V6FUCRHBAdTvc-47" vertex="1" connectable="0">
          <mxGeometry x="0.9429" y="-1" relative="1" as="geometry">
            <mxPoint as="offset" />
          </mxGeometry>
        </mxCell>
        <mxCell id="h6cW5OSTe79KtuTjOzZ5-6" value="4.1" style="edgeLabel;html=1;align=center;verticalAlign=middle;resizable=0;points=[];" vertex="1" connectable="0" parent="1giEV83V6FUCRHBAdTvc-47">
          <mxGeometry x="0.0289" y="3" relative="1" as="geometry">
            <mxPoint as="offset" />
          </mxGeometry>
        </mxCell>
        <mxCell id="h6cW5OSTe79KtuTjOzZ5-2" value="交互流程1: 点击YROS Homescreen的WPS图标 -&amp;gt; 启动并切换到Android WPS应用主界面 -&amp;gt; 点击弹出的微信消息通知 -&amp;gt; 进入微信消息界面" style="text;html=1;align=center;verticalAlign=middle;resizable=0;points=[];autosize=1;strokeColor=none;fillColor=none;" vertex="1" parent="1">
          <mxGeometry x="100" y="710" width="750" height="20" as="geometry" />
        </mxCell>
        <mxCell id="h6cW5OSTe79KtuTjOzZ5-3" value="交互流程2: 点击YROS Homescreen的WPS图标 -&amp;gt; 启动并切换到Android WPS应用主界面 -&amp;gt; 分享指定文件至微信 -&amp;gt; 进入微信分享界面" style="text;html=1;align=center;verticalAlign=middle;resizable=0;points=[];autosize=1;strokeColor=none;fillColor=none;" vertex="1" parent="1">
          <mxGeometry x="98" y="730" width="730" height="20" as="geometry" />
        </mxCell>
        <mxCell id="h6cW5OSTe79KtuTjOzZ5-4" value="交互流程3: 在微信分享界面点击返回键 -&amp;gt; 返回WPS主界面 -&amp;gt; 在WPS主界面点击返回键 -&amp;gt; 返回YROS Homescreen" style="text;html=1;align=center;verticalAlign=middle;resizable=0;points=[];autosize=1;strokeColor=none;fillColor=none;" vertex="1" parent="1">
          <mxGeometry x="96" y="750" width="630" height="20" as="geometry" />
        </mxCell>
        <mxCell id="h6cW5OSTe79KtuTjOzZ5-5" value="交互流程4: 点击点击YROS Homescreen的微信图标 -&amp;gt; 启动并切换到Android微信界面 -&amp;gt; 点击返回键 -&amp;gt; 返回YROS Homescreen" style="text;html=1;align=center;verticalAlign=middle;resizable=0;points=[];autosize=1;strokeColor=none;fillColor=none;" vertex="1" parent="1">
          <mxGeometry x="100" y="770" width="690" height="20" as="geometry" />
        </mxCell>
        <mxCell id="h6cW5OSTe79KtuTjOzZ5-7" value="" style="curved=1;endArrow=classic;html=1;rounded=0;exitX=0.5;exitY=1;exitDx=0;exitDy=0;" edge="1" parent="1" source="1giEV83V6FUCRHBAdTvc-25">
          <mxGeometry width="50" height="50" relative="1" as="geometry">
            <mxPoint x="870" y="690" as="sourcePoint" />
            <mxPoint x="350" y="570" as="targetPoint" />
            <Array as="points">
              <mxPoint x="710" y="680" />
              <mxPoint x="430" y="680" />
            </Array>
          </mxGeometry>
        </mxCell>
        <mxCell id="h6cW5OSTe79KtuTjOzZ5-8" value="4.2" style="edgeLabel;html=1;align=center;verticalAlign=middle;resizable=0;points=[];" vertex="1" connectable="0" parent="h6cW5OSTe79KtuTjOzZ5-7">
          <mxGeometry x="0.0206" y="1" relative="1" as="geometry">
            <mxPoint as="offset" />
          </mxGeometry>
        </mxCell>
        <mxCell id="h6cW5OSTe79KtuTjOzZ5-9" value="x" style="edgeLabel;html=1;align=center;verticalAlign=middle;resizable=0;points=[];" vertex="1" connectable="0" parent="h6cW5OSTe79KtuTjOzZ5-7">
          <mxGeometry x="-0.9266" y="4" relative="1" as="geometry">
            <mxPoint as="offset" />
          </mxGeometry>
        </mxCell>
      </root>
    </mxGraphModel>
  </diagram>
</mxfile>
